<svg width="149" height="48" viewBox="0 0 149 48" fill="none" xmlns="http://www.w3.org/2000/svg">
<rect x="0.5" y="0.5" width="147.416" height="47" rx="2.5" fill="white" stroke="#C4C4C4"/>
<g clip-path="url(#clip0_122_4949)">
<path d="M49.4965 11C56.4251 11.0546 61.9761 16.4173 62 23.6272C62.0218 30.2364 56.6231 36.1423 49.1822 35.9974C42.3951 35.865 36.8514 30.3365 37.003 23.118C37.1371 16.7424 42.3388 11.0659 49.4965 11ZM46.8637 25.3903C47.3081 25.3903 47.7527 25.3913 48.1972 25.3898C48.4097 25.3892 48.5428 25.4372 48.4933 25.7036C48.3843 26.2896 48.295 26.8789 48.1993 27.4669C48.019 28.5753 47.8392 29.6839 47.66 30.7926C47.6428 30.8982 47.5876 31.0111 47.7237 31.0841C47.9554 31.208 48.589 31.0502 48.7199 30.8314C50.3808 28.06 52.0408 25.288 53.6999 22.5154C54.0446 21.9388 53.8638 21.627 53.1876 21.6219C52.4098 21.6164 51.6318 21.6164 50.8539 21.6219C50.6123 21.6233 50.4482 21.5914 50.5064 21.2753C50.6799 20.335 50.8384 19.3919 50.9974 18.4489C51.1217 17.7106 51.2408 16.9715 51.3547 16.2315C51.3717 16.1212 51.4389 15.9845 51.259 15.919C51.0717 15.8646 50.872 15.8698 50.6877 15.9337C50.5034 15.9977 50.3436 16.1173 50.2302 16.2761C48.9526 18.4038 47.6759 20.5321 46.4003 22.661C46.0153 23.3033 45.6188 23.9389 45.252 24.5915C44.9771 25.0803 45.1575 25.383 45.6971 25.3889C46.0859 25.3931 46.4749 25.3897 46.8639 25.3905L46.8637 25.3903Z" fill="#1D5FE6"/>
</g>
<path d="M78.846 25.83H74.59L73.806 28H72.462L75.99 18.298H77.46L80.974 28H79.63L78.846 25.83ZM78.482 24.794L76.718 19.866L74.954 24.794H78.482ZM92.4096 18.312V28H91.1356V20.776L87.9156 28H87.0196L83.7856 20.762V28H82.5116V18.312H83.8836L87.4676 26.32L91.0516 18.312H92.4096ZM101.094 21.098C101.094 21.91 100.814 22.5867 100.254 23.128C99.7035 23.66 98.8589 23.926 97.7202 23.926H95.8442V28H94.5702V18.242H97.7202C98.8215 18.242 99.6569 18.508 100.226 19.04C100.805 19.572 101.094 20.258 101.094 21.098ZM97.7202 22.876C98.4295 22.876 98.9522 22.722 99.2882 22.414C99.6242 22.106 99.7922 21.6673 99.7922 21.098C99.7922 19.894 99.1015 19.292 97.7202 19.292H95.8442V22.876H97.7202Z" fill="#070707"/>
<defs>
<clipPath id="clip0_122_4949">
<rect width="25" height="25" fill="white" transform="translate(37 11)"/>
</clipPath>
</defs>
</svg>
