<svg width="141" height="48" viewBox="0 0 141 48" fill="none" xmlns="http://www.w3.org/2000/svg">
<rect x="0.5" y="0.5" width="140" height="47" rx="2.5" fill="white" stroke="#C4C4C4"/>
<path d="M66.172 29.098C65.528 29.098 64.9493 28.986 64.436 28.762C63.932 28.5287 63.5353 28.2113 63.246 27.81C62.9567 27.3993 62.8073 26.928 62.798 26.396H64.156C64.2027 26.8533 64.3893 27.2407 64.716 27.558C65.052 27.866 65.5373 28.02 66.172 28.02C66.7787 28.02 67.2547 27.8707 67.6 27.572C67.9547 27.264 68.132 26.872 68.132 26.396C68.132 26.0227 68.0293 25.7193 67.824 25.486C67.6187 25.2527 67.362 25.0753 67.054 24.954C66.746 24.8327 66.3307 24.702 65.808 24.562C65.164 24.394 64.646 24.226 64.254 24.058C63.8713 23.89 63.54 23.6287 63.26 23.274C62.9893 22.91 62.854 22.4247 62.854 21.818C62.854 21.286 62.9893 20.8147 63.26 20.404C63.5307 19.9933 63.9087 19.676 64.394 19.452C64.8887 19.228 65.4533 19.116 66.088 19.116C67.0027 19.116 67.7493 19.3447 68.328 19.802C68.916 20.2593 69.2473 20.866 69.322 21.622H67.922C67.8753 21.2487 67.6793 20.922 67.334 20.642C66.9887 20.3527 66.5313 20.208 65.962 20.208C65.43 20.208 64.996 20.348 64.66 20.628C64.324 20.8987 64.156 21.2813 64.156 21.776C64.156 22.1307 64.254 22.42 64.45 22.644C64.6553 22.868 64.9027 23.0407 65.192 23.162C65.4907 23.274 65.906 23.4047 66.438 23.554C67.082 23.7313 67.6 23.9087 67.992 24.086C68.384 24.254 68.72 24.52 69 24.884C69.28 25.2387 69.42 25.724 69.42 26.34C69.42 26.816 69.294 27.264 69.042 27.684C68.79 28.104 68.4167 28.4447 67.922 28.706C67.4273 28.9673 66.844 29.098 66.172 29.098ZM75.1028 21.188C75.6815 21.188 76.2041 21.314 76.6708 21.566C77.1375 21.8087 77.5015 22.1773 77.7628 22.672C78.0335 23.1667 78.1688 23.7687 78.1688 24.478V29H76.9088V24.66C76.9088 23.8947 76.7175 23.3113 76.3348 22.91C75.9521 22.4993 75.4295 22.294 74.7668 22.294C74.0948 22.294 73.5581 22.504 73.1568 22.924C72.7648 23.344 72.5688 23.9553 72.5688 24.758V29H71.2948V18.64H72.5688V22.42C72.8208 22.028 73.1661 21.7247 73.6048 21.51C74.0528 21.2953 74.5521 21.188 75.1028 21.188ZM83.5959 29.126C82.8772 29.126 82.2239 28.9627 81.6359 28.636C81.0572 28.3093 80.5999 27.8473 80.2639 27.25C79.9372 26.6433 79.7739 25.9433 79.7739 25.15C79.7739 24.366 79.9419 23.6753 80.2779 23.078C80.6232 22.4713 81.0899 22.0093 81.6779 21.692C82.2659 21.3653 82.9239 21.202 83.6519 21.202C84.3799 21.202 85.0379 21.3653 85.6259 21.692C86.2139 22.0093 86.6759 22.4667 87.0119 23.064C87.3572 23.6613 87.5299 24.3567 87.5299 25.15C87.5299 25.9433 87.3525 26.6433 86.9979 27.25C86.6525 27.8473 86.1812 28.3093 85.5839 28.636C84.9865 28.9627 84.3239 29.126 83.5959 29.126ZM83.5959 28.006C84.0532 28.006 84.4825 27.8987 84.8839 27.684C85.2852 27.4693 85.6072 27.1473 85.8499 26.718C86.1019 26.2887 86.2279 25.766 86.2279 25.15C86.2279 24.534 86.1065 24.0113 85.8639 23.582C85.6212 23.1527 85.3039 22.8353 84.9119 22.63C84.5199 22.4153 84.0952 22.308 83.6379 22.308C83.1712 22.308 82.7419 22.4153 82.3499 22.63C81.9672 22.8353 81.6592 23.1527 81.4259 23.582C81.1925 24.0113 81.0759 24.534 81.0759 25.15C81.0759 25.7753 81.1879 26.3027 81.4119 26.732C81.6452 27.1613 81.9532 27.4833 82.3359 27.698C82.7185 27.9033 83.1385 28.006 83.5959 28.006ZM90.479 22.742C90.731 22.3033 91.1043 21.9393 91.599 21.65C92.103 21.3513 92.6863 21.202 93.349 21.202C94.0303 21.202 94.6463 21.3653 95.197 21.692C95.757 22.0187 96.1956 22.4807 96.513 23.078C96.8303 23.666 96.989 24.352 96.989 25.136C96.989 25.9107 96.8303 26.6013 96.513 27.208C96.1956 27.8147 95.757 28.286 95.197 28.622C94.6463 28.958 94.0303 29.126 93.349 29.126C92.6956 29.126 92.117 28.9813 91.613 28.692C91.1183 28.3933 90.7403 28.0247 90.479 27.586V32.64H89.205V21.328H90.479V22.742ZM95.687 25.136C95.687 24.5573 95.5703 24.0533 95.337 23.624C95.1036 23.1947 94.7863 22.868 94.385 22.644C93.993 22.42 93.559 22.308 93.083 22.308C92.6163 22.308 92.1823 22.4247 91.781 22.658C91.389 22.882 91.0716 23.2133 90.829 23.652C90.5956 24.0813 90.479 24.5807 90.479 25.15C90.479 25.7287 90.5956 26.2373 90.829 26.676C91.0716 27.1053 91.389 27.4367 91.781 27.67C92.1823 27.894 92.6163 28.006 93.083 28.006C93.559 28.006 93.993 27.894 94.385 27.67C94.7863 27.4367 95.1036 27.1053 95.337 26.676C95.5703 26.2373 95.687 25.724 95.687 25.136ZM99.3239 20.082C99.0812 20.082 98.8759 19.998 98.7079 19.83C98.5399 19.662 98.4559 19.4567 98.4559 19.214C98.4559 18.9713 98.5399 18.766 98.7079 18.598C98.8759 18.43 99.0812 18.346 99.3239 18.346C99.5572 18.346 99.7532 18.43 99.9119 18.598C100.08 18.766 100.164 18.9713 100.164 19.214C100.164 19.4567 100.08 19.662 99.9119 19.83C99.7532 19.998 99.5572 20.082 99.3239 20.082ZM99.9399 21.328V29H98.6659V21.328H99.9399ZM105.233 22.378H103.623V29H102.349V22.378H101.355V21.328H102.349V20.782C102.349 19.9233 102.569 19.298 103.007 18.906C103.455 18.5047 104.169 18.304 105.149 18.304V19.368C104.589 19.368 104.193 19.48 103.959 19.704C103.735 19.9187 103.623 20.278 103.623 20.782V21.328H105.233V22.378ZM113.327 21.328L108.707 32.612H107.391L108.903 28.916L105.809 21.328H107.223L109.631 27.544L112.011 21.328H113.327Z" fill="#070707"/>
<g clip-path="url(#clip0_122_4963)">
<path d="M48.4576 15.4984C48.4383 15.3584 48.3156 15.2809 48.2143 15.2724C47.4669 15.2162 46.7195 15.1605 45.9721 15.1052C45.9721 15.1052 44.4851 13.629 44.3219 13.4656C44.1586 13.3023 43.8397 13.352 43.7159 13.3884C43.6977 13.3938 43.391 13.4884 42.8837 13.6454C42.387 12.216 41.5104 10.9025 39.9682 10.9025C39.9256 10.9025 39.8818 10.9043 39.838 10.9067C39.3994 10.3267 38.856 10.0747 38.3868 10.0747C34.7942 10.0747 33.0779 14.5657 32.5397 16.8479C31.1438 17.2805 30.1521 17.588 30.0254 17.6278C29.2462 17.8722 29.2216 17.8968 29.1192 18.631C29.0422 19.1869 27.0034 34.954 27.0034 34.954L42.8904 37.9307L51.4984 36.0685C51.4984 36.0685 48.4765 15.6384 48.4576 15.4984ZM42.0057 13.9169L40.6614 14.333C40.6619 14.2383 40.6623 14.1451 40.6623 14.0431C40.6623 13.1548 40.539 12.4396 40.3412 11.8726C41.1358 11.9723 41.6651 12.8764 42.0057 13.9169ZM39.3554 12.0487C39.5764 12.6023 39.72 13.3967 39.72 14.4688C39.72 14.5236 39.7195 14.5738 39.7191 14.6245C38.8448 14.8953 37.8948 15.1893 36.9427 15.4843C37.4773 13.4211 38.4794 12.4246 39.3554 12.0487ZM38.2881 11.0383C38.4431 11.0383 38.5993 11.091 38.7488 11.1938C37.5975 11.7356 36.3634 13.1001 35.8422 15.8251L33.6477 16.5047C34.2581 14.4263 35.7077 11.0383 38.2881 11.0383Z" fill="#95BF46"/>
<path d="M48.2143 15.2725C47.4669 15.2163 46.7195 15.1606 45.9721 15.1054C45.9721 15.1054 44.4851 13.6291 44.3219 13.4657C44.2608 13.4049 44.1784 13.3738 44.0923 13.3604L42.8911 37.9306L51.4984 36.0686C51.4984 36.0686 48.4765 15.6385 48.4576 15.4985C48.4383 15.3585 48.3156 15.281 48.2143 15.2725Z" fill="#5E8E3E"/>
<path d="M39.9682 20.0288L38.9068 23.1861C38.9068 23.1861 37.9769 22.6897 36.8369 22.6897C35.1658 22.6897 35.0817 23.7385 35.0817 24.0028C35.0817 25.4448 38.8406 25.9973 38.8406 29.3749C38.8406 32.0323 37.1551 33.7435 34.8825 33.7435C32.1554 33.7435 30.7607 32.0462 30.7607 32.0462L31.4909 29.6336C31.4909 29.6336 32.9245 30.8644 34.1342 30.8644C34.9246 30.8644 35.2461 30.2421 35.2461 29.7873C35.2461 27.9064 32.1623 27.8225 32.1623 24.7316C32.1623 22.1302 34.0295 19.6128 37.7985 19.6128C39.2508 19.6128 39.9682 20.0288 39.9682 20.0288Z" fill="white"/>
</g>
<defs>
<clipPath id="clip0_122_4963">
<rect width="24.5479" height="28" fill="white" transform="translate(27 10)"/>
</clipPath>
</defs>
</svg>
