<svg width="161" height="48" viewBox="0 0 161 48" fill="none" xmlns="http://www.w3.org/2000/svg">
<rect x="0.5" y="0.5" width="160" height="47" rx="2.5" fill="white" stroke="#C4C4C4"/>
<path d="M45.5287 23.4362C45.5287 22.0582 45.033 21.1043 44.6089 20.3617L44.4789 20.1504C43.9638 19.3217 43.5137 18.5937 43.5137 17.7454C43.5137 16.7217 44.2904 15.7662 45.3857 15.7662C45.4182 15.7662 45.449 15.7694 45.4799 15.771L45.5303 15.7759C43.4766 13.8895 40.7886 12.8443 38 12.8477C36.1519 12.8467 34.3325 13.3056 32.7059 14.183C31.0793 15.0605 29.6966 16.3288 28.6823 17.8738C28.9423 17.8819 29.1909 17.8884 29.4005 17.8884C30.5657 17.8884 32.371 17.747 32.371 17.747C32.9723 17.7113 33.0438 18.5937 32.4425 18.6652C32.4425 18.6652 31.8397 18.7367 31.1669 18.7708L35.2294 30.851L37.6669 23.5288L35.9282 18.7692C35.3285 18.7334 34.7598 18.6635 34.7598 18.6635C34.1585 18.6278 34.23 17.708 34.8297 17.7438C34.8297 17.7438 36.6724 17.8852 37.7677 17.8852C38.9344 17.8852 40.7414 17.7438 40.7414 17.7438C41.3427 17.708 41.4125 18.592 40.8113 18.6635C40.8113 18.6635 40.2068 18.7334 39.5357 18.7692L43.5657 30.7568L44.6772 27.0404L44.7649 26.7593C45.2037 25.3618 45.527 24.3299 45.527 23.4345L45.5287 23.4362ZM26.8477 24C26.8476 26.0943 27.437 28.1462 28.5486 29.921C29.6602 31.6959 31.249 33.122 33.1332 34.036L27.8113 19.4598C27.174 20.8885 26.8456 22.4357 26.8477 24Z" fill="black"/>
<path d="M34.8491 34.6974L38.1966 24.9751L41.6237 34.3675C41.6465 34.4212 41.6725 34.4715 41.7034 34.5203C39.4941 35.2986 37.0957 35.3606 34.8491 34.6974ZM47.7841 18.6489C47.8329 19.0048 47.8605 19.3851 47.8605 19.7962C47.8605 20.9272 47.6492 22.1996 47.0122 23.7904L43.6062 33.6379C46.1196 32.1776 47.9632 29.7933 48.744 26.9933C49.5247 24.1933 49.1809 21.1991 47.7857 18.6489H47.7841Z" fill="black"/>
<path fill-rule="evenodd" clip-rule="evenodd" d="M25 24C25 16.8321 30.8321 11 38 11C45.1663 11 51 16.8321 51 24C51 31.1679 45.1663 37 38 37C30.8321 37 25 31.1679 25 24ZM25.5964 24C25.5964 30.8396 31.1604 36.4036 38 36.4036C44.838 36.4036 50.402 30.8396 50.402 24C50.402 17.1588 44.838 11.5964 38 11.5964C31.1588 11.5964 25.5964 17.1588 25.5964 24Z" fill="black"/>
<path d="M73.342 18.242L70.514 28H69.086L66.818 20.146L64.466 28L63.052 28.014L60.322 18.242H61.68L63.808 26.516L66.16 18.242H67.588L69.828 26.488L71.97 18.242H73.342ZM78.0822 28.126C77.3635 28.126 76.7102 27.9627 76.1222 27.636C75.5435 27.3093 75.0862 26.8473 74.7502 26.25C74.4235 25.6433 74.2602 24.9433 74.2602 24.15C74.2602 23.366 74.4282 22.6753 74.7642 22.078C75.1095 21.4713 75.5762 21.0093 76.1642 20.692C76.7522 20.3653 77.4102 20.202 78.1382 20.202C78.8662 20.202 79.5242 20.3653 80.1122 20.692C80.7002 21.0093 81.1622 21.4667 81.4982 22.064C81.8435 22.6613 82.0162 23.3567 82.0162 24.15C82.0162 24.9433 81.8389 25.6433 81.4842 26.25C81.1389 26.8473 80.6675 27.3093 80.0702 27.636C79.4729 27.9627 78.8102 28.126 78.0822 28.126ZM78.0822 27.006C78.5395 27.006 78.9689 26.8987 79.3702 26.684C79.7715 26.4693 80.0935 26.1473 80.3362 25.718C80.5882 25.2887 80.7142 24.766 80.7142 24.15C80.7142 23.534 80.5929 23.0113 80.3502 22.582C80.1075 22.1527 79.7902 21.8353 79.3982 21.63C79.0062 21.4153 78.5815 21.308 78.1242 21.308C77.6575 21.308 77.2282 21.4153 76.8362 21.63C76.4535 21.8353 76.1455 22.1527 75.9122 22.582C75.6789 23.0113 75.5622 23.534 75.5622 24.15C75.5622 24.7753 75.6742 25.3027 75.8982 25.732C76.1315 26.1613 76.4395 26.4833 76.8222 26.698C77.2049 26.9033 77.6249 27.006 78.0822 27.006ZM84.9653 21.574C85.1893 21.1353 85.5066 20.7947 85.9173 20.552C86.3373 20.3093 86.8459 20.188 87.4433 20.188V21.504H87.1073C85.6793 21.504 84.9653 22.2787 84.9653 23.828V28H83.6913V20.328H84.9653V21.574ZM88.4379 24.136C88.4379 23.352 88.5966 22.666 88.9139 22.078C89.2313 21.4807 89.6653 21.0187 90.2159 20.692C90.7759 20.3653 91.4013 20.202 92.0919 20.202C92.6893 20.202 93.2446 20.342 93.7579 20.622C94.2713 20.8927 94.6633 21.252 94.9339 21.7V17.64H96.2219V28H94.9339V26.558C94.6819 27.0153 94.3086 27.3933 93.8139 27.692C93.3193 27.9813 92.7406 28.126 92.0779 28.126C91.3966 28.126 90.7759 27.958 90.2159 27.622C89.6653 27.286 89.2313 26.8147 88.9139 26.208C88.5966 25.6013 88.4379 24.9107 88.4379 24.136ZM94.9339 24.15C94.9339 23.5713 94.8173 23.0673 94.5839 22.638C94.3506 22.2087 94.0333 21.882 93.6319 21.658C93.2399 21.4247 92.8059 21.308 92.3299 21.308C91.8539 21.308 91.4199 21.42 91.0279 21.644C90.6359 21.868 90.3233 22.1947 90.0899 22.624C89.8566 23.0533 89.7399 23.5573 89.7399 24.136C89.7399 24.724 89.8566 25.2373 90.0899 25.676C90.3233 26.1053 90.6359 26.4367 91.0279 26.67C91.4199 26.894 91.8539 27.006 92.3299 27.006C92.8059 27.006 93.2399 26.894 93.6319 26.67C94.0333 26.4367 94.3506 26.1053 94.5839 25.676C94.8173 25.2373 94.9339 24.7287 94.9339 24.15ZM99.6489 21.742C99.9009 21.3033 100.274 20.9393 100.769 20.65C101.273 20.3513 101.856 20.202 102.519 20.202C103.2 20.202 103.816 20.3653 104.367 20.692C104.927 21.0187 105.366 21.4807 105.683 22.078C106 22.666 106.159 23.352 106.159 24.136C106.159 24.9107 106 25.6013 105.683 26.208C105.366 26.8147 104.927 27.286 104.367 27.622C103.816 27.958 103.2 28.126 102.519 28.126C101.866 28.126 101.287 27.9813 100.783 27.692C100.288 27.3933 99.9102 27.0247 99.6489 26.586V31.64H98.3749V20.328H99.6489V21.742ZM104.857 24.136C104.857 23.5573 104.74 23.0533 104.507 22.624C104.274 22.1947 103.956 21.868 103.555 21.644C103.163 21.42 102.729 21.308 102.253 21.308C101.786 21.308 101.352 21.4247 100.951 21.658C100.559 21.882 100.242 22.2133 99.9989 22.652C99.7655 23.0813 99.6489 23.5807 99.6489 24.15C99.6489 24.7287 99.7655 25.2373 99.9989 25.676C100.242 26.1053 100.559 26.4367 100.951 26.67C101.352 26.894 101.786 27.006 102.253 27.006C102.729 27.006 103.163 26.894 103.555 26.67C103.956 26.4367 104.274 26.1053 104.507 25.676C104.74 25.2373 104.857 24.724 104.857 24.136ZM109.11 21.574C109.334 21.1353 109.651 20.7947 110.062 20.552C110.482 20.3093 110.99 20.188 111.588 20.188V21.504H111.252C109.824 21.504 109.11 22.2787 109.11 23.828V28H107.836V20.328H109.11V21.574ZM120.058 23.87C120.058 24.1127 120.044 24.3693 120.016 24.64H113.884C113.931 25.396 114.188 25.9887 114.654 26.418C115.13 26.838 115.704 27.048 116.376 27.048C116.927 27.048 117.384 26.922 117.748 26.67C118.122 26.4087 118.383 26.0633 118.532 25.634H119.904C119.699 26.3713 119.288 26.9733 118.672 27.44C118.056 27.8973 117.291 28.126 116.376 28.126C115.648 28.126 114.995 27.9627 114.416 27.636C113.847 27.3093 113.399 26.8473 113.072 26.25C112.746 25.6433 112.582 24.9433 112.582 24.15C112.582 23.3567 112.741 22.6613 113.058 22.064C113.376 21.4667 113.819 21.0093 114.388 20.692C114.967 20.3653 115.63 20.202 116.376 20.202C117.104 20.202 117.748 20.3607 118.308 20.678C118.868 20.9953 119.298 21.434 119.596 21.994C119.904 22.5447 120.058 23.17 120.058 23.87ZM118.742 23.604C118.742 23.1187 118.635 22.7033 118.42 22.358C118.206 22.0033 117.912 21.7373 117.538 21.56C117.174 21.3733 116.768 21.28 116.32 21.28C115.676 21.28 115.126 21.4853 114.668 21.896C114.22 22.3067 113.964 22.876 113.898 23.604H118.742ZM124.456 28.126C123.868 28.126 123.341 28.028 122.874 27.832C122.407 27.6267 122.039 27.3467 121.768 26.992C121.497 26.628 121.348 26.2127 121.32 25.746H122.636C122.673 26.1287 122.851 26.4413 123.168 26.684C123.495 26.9267 123.919 27.048 124.442 27.048C124.927 27.048 125.31 26.9407 125.59 26.726C125.87 26.5113 126.01 26.2407 126.01 25.914C126.01 25.578 125.861 25.3307 125.562 25.172C125.263 25.004 124.801 24.8407 124.176 24.682C123.607 24.5327 123.14 24.3833 122.776 24.234C122.421 24.0753 122.113 23.8467 121.852 23.548C121.6 23.24 121.474 22.8387 121.474 22.344C121.474 21.952 121.591 21.5927 121.824 21.266C122.057 20.9393 122.389 20.6827 122.818 20.496C123.247 20.3 123.737 20.202 124.288 20.202C125.137 20.202 125.823 20.4167 126.346 20.846C126.869 21.2753 127.149 21.8633 127.186 22.61H125.912C125.884 22.2087 125.721 21.8867 125.422 21.644C125.133 21.4013 124.741 21.28 124.246 21.28C123.789 21.28 123.425 21.378 123.154 21.574C122.883 21.77 122.748 22.0267 122.748 22.344C122.748 22.596 122.827 22.806 122.986 22.974C123.154 23.1327 123.359 23.2633 123.602 23.366C123.854 23.4593 124.199 23.5667 124.638 23.688C125.189 23.8373 125.637 23.9867 125.982 24.136C126.327 24.276 126.621 24.4907 126.864 24.78C127.116 25.0693 127.247 25.4473 127.256 25.914C127.256 26.334 127.139 26.712 126.906 27.048C126.673 27.384 126.341 27.65 125.912 27.846C125.492 28.0327 125.007 28.126 124.456 28.126ZM131.771 28.126C131.183 28.126 130.655 28.028 130.189 27.832C129.722 27.6267 129.353 27.3467 129.083 26.992C128.812 26.628 128.663 26.2127 128.635 25.746H129.951C129.988 26.1287 130.165 26.4413 130.483 26.684C130.809 26.9267 131.234 27.048 131.757 27.048C132.242 27.048 132.625 26.9407 132.905 26.726C133.185 26.5113 133.325 26.2407 133.325 25.914C133.325 25.578 133.175 25.3307 132.877 25.172C132.578 25.004 132.116 24.8407 131.491 24.682C130.921 24.5327 130.455 24.3833 130.091 24.234C129.736 24.0753 129.428 23.8467 129.167 23.548C128.915 23.24 128.789 22.8387 128.789 22.344C128.789 21.952 128.905 21.5927 129.139 21.266C129.372 20.9393 129.703 20.6827 130.133 20.496C130.562 20.3 131.052 20.202 131.603 20.202C132.452 20.202 133.138 20.4167 133.661 20.846C134.183 21.2753 134.463 21.8633 134.501 22.61H133.227C133.199 22.2087 133.035 21.8867 132.737 21.644C132.447 21.4013 132.055 21.28 131.561 21.28C131.103 21.28 130.739 21.378 130.469 21.574C130.198 21.77 130.063 22.0267 130.063 22.344C130.063 22.596 130.142 22.806 130.301 22.974C130.469 23.1327 130.674 23.2633 130.917 23.366C131.169 23.4593 131.514 23.5667 131.953 23.688C132.503 23.8373 132.951 23.9867 133.297 24.136C133.642 24.276 133.936 24.4907 134.179 24.78C134.431 25.0693 134.561 25.4473 134.571 25.914C134.571 26.334 134.454 26.712 134.221 27.048C133.987 27.384 133.656 27.65 133.227 27.846C132.807 28.0327 132.321 28.126 131.771 28.126Z" fill="#070707"/>
</svg>
